<svg xmlns="http://www.w3.org/2000/svg" viewBox="0 0 512 512" role="img" aria-label="Uni">
  <defs>
    <linearGradient id="bg" x1="96" y1="72" x2="416" y2="440" gradientUnits="userSpaceOnUse">
      <stop offset="0" stop-color="#7dc4ff"/>
      <stop offset=".48" stop-color="#007aff"/>
      <stop offset="1" stop-color="#63d8b7"/>
    </linearGradient>
    <radialGradient id="shine" cx="35%" cy="18%" r="70%">
      <stop offset="0" stop-color="#fff" stop-opacity=".72"/>
      <stop offset=".42" stop-color="#fff" stop-opacity=".16"/>
      <stop offset="1" stop-color="#fff" stop-opacity="0"/>
    </radialGradient>
    <filter id="soft" x="-20%" y="-20%" width="140%" height="140%">
      <feDropShadow dx="0" dy="22" stdDeviation="24" flood-color="#0b4da2" flood-opacity=".24"/>
    </filter>
  </defs>
  <rect width="512" height="512" rx="136" fill="url(#bg)" filter="url(#soft)"/>
  <rect width="512" height="512" rx="136" fill="url(#shine)"/>
  <path d="M154 148v132c0 70 41 112 102 112s102-42 102-112V148h-64v132c0 34-14 54-38 54s-38-20-38-54V148h-64z" fill="#fff"/>
  <path d="M154 148v132c0 70 41 112 102 112s102-42 102-112V148h-64v132c0 34-14 54-38 54s-38-20-38-54V148h-64z" fill="#fff" opacity=".18" transform="translate(0 10)"/>
</svg>
